<?xml version="1.0" encoding="UTF-8"?>
<svg width="512pt" height="512pt" version="1.1" viewBox="0 0 512 512" xmlns="http://www.w3.org/2000/svg" fill="#fff">
 <path d="m355.4 149.78c-0.73828 0-1.4609-0.12109-2.1602-0.33984-6.5391-2.0391-39.66-5.3203-59.02-6.8789-1-0.078125-1.9609-0.35938-2.8594-0.83984l-16.922-9.2383c-2.6797-1.4609-4.1406-4.4609-3.6406-7.4805 1.2188-7.3203 7.3984-14.262 18.34-20.68v0.019531c4.6406-2.6992 9.4805-5.0195 14.48-6.9609 1.8789-0.69922 3.9609-0.57812 5.7383 0.32031 39.98 20.262 51.801 40.52 52.301 41.359v0.019531c1.2617 2.2188 1.2383 4.9414-0.039062 7.1406-1.3008 2.1992-3.6602 3.5586-6.1992 3.5586zm-58.5-21.379c5.9609 0.51953 24.121 2.0391 39.34 3.8594-6.7617-5.8594-16.621-12.98-30.539-20.301-7.1016 3.0195-14.422 7.4414-18.219 11.301z"/>
 <path d="m346.62 319.42c-2.2812 0-4.5391-0.44141-6.6602-1.2812-12.121-4.8398-26.48-14.121-36.398-21.039-14.102-9.8398-25.68-21.801-34.461-35.539-24.059-37.699-17-71.598-6.8398-93.398 10.82-23.219 27.141-37.539 27.82-38.141h0.019531c2.9805-2.6016 7.5195-2.3008 10.121 0.67969 2.6016 3 2.2812 7.5195-0.69922 10.121 0 0-0.33984 0.30078-0.92188 0.83984 16.078 13.48 30.621 37.961 43.199 72.961 11.68 32.398 18.98 66.34 22.281 83.703 1 5.1992-0.37891 10.578-3.7617 14.66-3.3789 4.082-8.3984 6.4414-13.699 6.4414zm-57.641-167.12c-5.5 6.8594-10.18 14.359-13.898 22.34-12.359 26.84-10.301 53.477 6.1406 79.203 7.7617 12.141 18.039 22.738 30.582 31.5 9.3008 6.5 22.66 15.141 33.5 19.48 1.1992 0.5 2.5586 0.28125 3.5391-0.53906 0.98047-0.78125 1.4414-2.0391 1.1797-3.2812-5.4414-28.32-25.301-119.64-61.039-148.7z"/>
 <path d="m201.64 164.76c-8.6602 0-17.16-1.0781-25.078-3.6602-16.301-5.3008-28.281-16.199-35.66-32.34-4.4805-9.6797-2.1406-21.141 5.7383-28.32 18.32-16.621 68.898-48.922 142.58 10.039h0.019532c3.0781 2.4805 3.5781 6.9805 1.1211 10.082-2.4805 3.1016-7 3.6016-10.082 1.1211-62.742-50.18-104.62-28.199-124-10.621-3.2617 2.9805-4.1992 7.7383-2.3398 11.738 5.7188 12.52 14.559 20.602 27 24.641 40.539 13.199 103.06-21.559 103.68-21.898h0.019531c3.4219-1.8398 7.6992-0.60156 9.6211 2.8008 1.9219 3.3984 0.76172 7.7188-2.6016 9.6992-2.3008 1.3008-47.941 26.719-90.02 26.719z"/>
 <path d="m185.86 324.4c-15.66 0.078124-31.199-2.5781-45.941-7.8594-36.262-13.121-56.582-38.738-63.641-49.16v0.019532c-1.7812-2.6211-3.0781-5.5391-3.8594-8.6406-11.84-47.48-10.578-90.02 3.6992-126.46 10.719-27.32 28.48-50.738 52.781-69.602h0.019531c27.66-21.441 61.941-32.539 96.922-31.379 43.32 1.4805 64.82 21 75.238 37.078 11.32 17.52 12.16 34.68 12.199 35.398h-0.019532c0.17969 3.9609-2.8984 7.3203-6.8594 7.4805-3.9609 0.17969-7.3008-2.8984-7.4805-6.8594 0-0.14062-0.82031-14.5-10.238-28.762-12.5-18.898-33.801-29-63.34-30.02-31.641-1.0391-62.66 9-87.66 28.422-36.918 28.68-75.781 83.359-51.379 181.24 0.37891 1.4609 0.98047 2.8203 1.8398 4.0586 4.8789 7.1992 23.418 31.68 56.656 43.699 41.859 15.16 91.078 5.918 146.3-27.441v0.019531c3.3789-2.0586 7.8008-0.96094 9.8398 2.4219 2.0586 3.3984 0.96094 7.8203-2.4414 9.8594-31.922 19.281-62.617 31.059-91.238 34.98-7.1016 1-14.238 1.5-21.398 1.5z"/>
 <path d="m131.94 156.28c-6.0195 0.039062-12-1-17.641-3.0781-13.559-5.1211-23.699-16.18-30.121-32.941h-0.019532c-0.76172-1.8008-0.76172-3.8203 0-5.6211 0.76172-1.8008 2.2188-3.1992 4.0391-3.8984 1.8203-0.69922 3.8398-0.62109 5.6016 0.19922 1.7812 0.83984 3.1211 2.3594 3.7383 4.1992 4.8789 12.719 12.199 21 21.719 24.641 16.98 6.4414 36.301-3.3789 36.5-3.4805v-0.019531c3.5-1.8398 7.8398-0.48047 9.6797 3.0195 1.8398 3.5195 0.48047 7.8398-3.0195 9.6797-0.76172 0.37891-14.199 7.3008-30.48 7.3008z"/>
 <path d="m334.34 380.68c-7.4805 0-17.859-4.0586-32.66-12.539-9.5-5.4414-18.18-11.262-22.52-14.301-33 9.7812-64.18 11.379-92.738 4.7812-23.738-5.5195-45.621-16.66-65.082-33.121-32.898-27.859-47.199-61.102-47.801-62.5-1.5391-3.6406 0.16016-7.8594 3.8008-9.3984 3.6602-1.5391 7.8594 0.16016 9.3984 3.8008 0.14062 0.32031 13.82 31.879 44.281 57.496 40.359 33.961 89.902 42.102 147.26-27.441v0.019532c2.1406-0.67969 4.4805-0.30078 6.3203 1.0195 0.10156 0.078125 10.66 7.6406 22.66 14.66 16.379 9.5781 23.641 11.301 26.359 11.52-0.039063-0.28125-0.078125-0.57812-0.14062-0.96094-3.2188-14.879-10.34-38.059-16.16-43.082-2.6406-2.2812-3.2617-6.1016-1.4805-9.0781l7.1211-11.98v-0.019531c2.0391-3.3984 6.4414-4.5195 9.8398-2.5 3.3984 2.0195 4.5195 6.4219 2.5 9.8398l-4.5195 7.6016c9.2617 13.32 15.441 40.359 16.719 46.301l0.039062 0.14062c1.8789 9.7812-2.4414 14.199-5.1992 15.961h-0.019532c-2.3984 1.4805-5.1797 2.2188-7.9805 2.1406z"/>
 <path d="m394.9 480.76c-5.8984 0-15.52-2.1797-26.621-13.102h-0.019531c-1.6211-1.6211-3.1602-3.3203-4.6016-5.0781-6.1406-7.3984-27.68-33.461-48.039-58.68-40.121-49.68-41.32-53.5-42.039-55.797v-0.019531c-1.1992-3.7188 0.82031-7.7188 4.5195-8.9805 3.6992-1.2617 7.7383 0.67969 9.0586 4.3789 3.1211 6.2617 39.02 51.34 87.562 109.94 1.3594 1.6211 2.5 2.8984 3.6406 4.0195 9.0391 8.8789 15.262 9.2188 17.52 8.9414h0.058594c1.8984-2.8594 0.94141-11.879-8-28.262l-0.019531-0.019532c-4.6602-8.3789-9.8789-16.441-15.621-24.121-2.1016-2.7617-1.9219-6.6406 0.42188-9.1992 2.3398-2.5586 6.1797-3.0781 9.1211-1.2188l42.539 26.941c2.6406 1.7188 5.5586 2.9805 8.6406 3.7188l0.28125 0.058594c-11.422-30.641-87.238-90.961-115.52-111.64-3.1797-2.3398-3.8789-6.8398-1.5391-10.02 2.3398-3.1992 6.8203-3.8984 10.02-1.5586 0.26172 0.17969 26.422 19.359 54 43.102 37.66 32.441 60.059 57.738 66.477 75.203 1.8203 4.9219 0.80078 10.441-2.6602 14.398-3.4414 3.9414-8.7812 5.6797-13.898 4.5586l-0.42188-0.10156c-4.6406-1.1211-9.0586-3-13.059-5.5781l-15.301-9.6992c10.52 19.82 12.398 33.68 5.7383 42.32-2.3398 3.0195-5.8008 4.9414-9.5781 5.3398-0.87891 0.12109-1.7812 0.16016-2.6602 0.16016z"/>
 <path d="m222.26 120.78c-0.039062 0-3.1797-2.8789-7.2188-2.8984-4.0391-0.019531-7.1602 2.8789-7.2188 2.8984l0.058594-0.058594-9.9805-10.301c0.71875-0.69922 7.3398-6.8594 17.102-6.8789h0.058594c9.7578 0.039062 16.379 6.1797 17.102 6.8789l-9.9609 10.281z"/>
 <path d="m226.04 399.88c-3.9609 0-7.1602-3.2188-7.1602-7.1797v-37.32c0-3.9414 3.1992-7.1602 7.1602-7.1602 3.9609 0 7.1797 3.2188 7.1797 7.1602v37.32c0 1.8984-0.76172 3.7188-2.1016 5.0781-1.3594 1.3398-3.1797 2.1016-5.0781 2.1016z"/>
 <path d="m251.72 412.72c-1.1211 0-2.2188-0.26172-3.1992-0.76172l-22.48-11.238-22.461 11.238c-1.7188 0.98047-3.7383 1.1992-5.6406 0.64062-1.8789-0.57812-3.4414-1.8984-4.3203-3.6602-0.87891-1.7617-1-3.8008-0.33984-5.6406 0.67969-1.8594 2.0781-3.3398 3.8789-4.1406l25.68-12.84c2.0195-1 4.3984-1 6.3984 0l25.68 12.84c2.9805 1.5 4.5391 4.8398 3.7812 8.0586-0.76172 3.2383-3.6602 5.5391-6.9805 5.5195z"/>
 <path d="m226.04 419.14c-3.9609 0-7.1602-3.1992-7.1602-7.1602v-19.281c0-3.9609 3.1992-7.1602 7.1602-7.1602 3.9609 0 7.1797 3.1992 7.1797 7.1602v19.262c0 1.8984-0.76172 3.7383-2.1016 5.0781-1.3594 1.3398-3.1797 2.1016-5.0781 2.1016z"/>
 <path d="m150.9 382.06c-3.9609 0-7.1602-3.1992-7.1602-7.1602v-37.578c0-3.9609 3.1992-7.1797 7.1602-7.1797 3.9609 0 7.1797 3.2188 7.1797 7.1797v37.602-0.019531c0 1.8984-0.76172 3.7188-2.1016 5.0781-1.3398 1.3398-3.1797 2.0781-5.0781 2.0781z"/>
 <path d="m176.58 394.92c-1.1211-0.019531-2.2188-0.26172-3.1992-0.76172l-22.48-11.238-22.461 11.238c-1.7188 0.96094-3.7383 1.1992-5.6406 0.62109-1.8789-0.55859-3.4414-1.8789-4.3203-3.6406-0.87891-1.7617-1-3.8008-0.33984-5.6602 0.67969-1.8398 2.0781-3.3398 3.8789-4.1211l25.68-12.84c2.0195-1.0195 4.3789-1.0195 6.3984 0l25.68 12.84c2.9805 1.4805 4.5391 4.8203 3.7812 8.0586-0.78125 3.2188-3.6602 5.5195-6.9805 5.5195z"/>
 <path d="m150.9 401.32c-3.9609 0-7.1602-3.1992-7.1602-7.1602v-19.262c0-3.9609 3.1992-7.1602 7.1602-7.1602 3.9609 0 7.1602 3.1992 7.1602 7.1602v19.262c0 1.8984-0.73828 3.7188-2.0781 5.0586-1.3594 1.3594-3.1797 2.1016-5.0781 2.1016z"/>
</svg>
